PathFileType	4	(X/Y/Z)	AB11\squats_1.trc
DataRate	CameraRate	NumFrames	NumMarkers	Units	OrigDataRate	OrigDataStartFrame	OrigNumFrames
200.000000	200.000000	4	35	mm	200.000000	79	317
Frame#	Time	C7			LSHO			STRN			LASI			RASI			LPSI			RPSI			LGTR			RGTR			LTHC			LTHL			LTHR			LKNE			LMKNE			LSHC			LSHL			LSHR			LANK			LMANK			LMT1			LMT5			LCAL			RTHC			RTHL			RTHR			RKNE			RMKNE			RSHC			RSHL			RSHR			RANK			RMANK			RMT1			RMT5			RCAL			
		X1	Y1	Z1	X2	Y2	Z2	X3	Y3	Z3	X4	Y4	Z4	X5	Y5	Z5	X6	Y6	Z6	X7	Y7	Z7	X8	Y8	Z8	X9	Y9	Z9	X10	Y10	Z10	X11	Y11	Z11	X12	Y12	Z12	X13	Y13	Z13	X14	Y14	Z14	X15	Y15	Z15	X16	Y16	Z16	X17	Y17	Z17	X18	Y18	Z18	X19	Y19	Z19	X20	Y20	Z20	X21	Y21	Z21	X22	Y22	Z22	X23	Y23	Z23	X24	Y24	Z24	X25	Y25	Z25	X26	Y26	Z26	X27	Y27	Z27	X28	Y28	Z28	X29	Y29	Z29	X30	Y30	Z30	X31	Y31	Z31	X32	Y32	Z32	X33	Y33	Z33	X34	Y34	Z34	X35	Y35	Z35	

80	22.05	-2255.213959101749	1060.030880349165	2494.248071975134	-2182.374021461048	1008.011530069522	2365.316289006627	-2165.449838366584	930.8193343952324	2485.851688092866	-2354.938814412635	633.4046924131505	2342.208984608345	-2357.596743054445	648.539239061339	2598.585698480894	-2544.947293365065	727.4726253898849	2421.649606600083	-2547.425580500349	729.5854034500018	2517.85313451767	-2430.294744557204	645.1247440849709	2264.026549796591	-2466.105316295462	660.7930960118051	2681.720005436181	-2344.043516559597	471.5317763450683	2255.991070089875	-2210.549971801061	556.352898160216	2319.940147861153	-2285.881314331155	385.796557273577	2313.274326687766	-2156.965240380749	392.9464697642387	2243.443152667765	-2149.768460049306	376.6750740215443	2371.383744185338	-2246.02650297471	325.8087632023742	2223.592717751601	-2243.560096494664	184.5065077623453	2242.480650851412	-2318.65685075797	243.5919319497923	2294.379906923033	-2344.195727896423	95.32580791438083	2218.841870122053	-2321.278352333105	98.61356806670041	2303.382095237396	-2206.849195068399	62.14222037779244	2270.458232471701	-2246.674379530666	54.66863168317803	2189.468905102392	-2416.920689789506	68.72138553951216	2262.346617588291	-2192.775133894465	529.243372945711	2583.239806782162	-2333.280715514836	523.0066241488387	2694.3245211468	-2310.560073353898	444.1841263210086	2682.363696897076	-2169.358187407551	411.4102858264547	2700.034662050885	-2167.286168802903	366.373711204361	2575.603923607505	-2237.572843398741	175.3782477953858	2685.329328329751	-2332.546997449567	219.1144099138854	2664.77395745934	-2269.69193289468	269.9100906789186	2728.523048084923	-2345.185985225009	94.16706937602083	2727.116512528383	-2325.540104112323	90.82200119215703	2644.897689719139	-2203.148860855915	64.40260164490536	2688.6399824208	-2239.134962731269	51.69761152888421	2764.822907976185	-2410.851140934697	65.54095743262437	2675.911282283824	
81	22.055	-2254.941238105594	1054.817942968943	2494.282102615316	-2182.084598857602	1002.565255559551	2365.469749435019	-2165.44296523898	925.3247156020414	2485.811896827241	-2355.685987687151	629.3556763318782	2342.361195048778	-2358.235778383448	644.2907743307823	2598.655933080965	-2545.92318176964	722.8001059680367	2421.746536887747	-2548.349860116934	725.003017993359	2517.869733360557	-2431.119582764371	641.0445419930287	2264.176273927227	-2466.867380683938	656.8933405068373	2681.658264941623	-2343.801843276036	468.5964434633579	2256.055570893987	-2211.188576027081	554.7712340241739	2320.233607879312	-2284.734627945921	383.5828220839115	2313.286612682009	-2155.98670557269	392.2242373174952	2243.380654934999	-2148.43696851176	375.8790172034844	2371.468701677147	-2245.336909069297	325.5397763455683	2223.832361267119	-2243.209685770004	184.2230893808048	2242.553806971985	-2318.022386452722	243.3793063727072	2294.708612719782	-2344.087629038571	95.36126592531652	2219.007793333408	-2321.127025545226	98.6002185604943	2303.541156305804	-2206.82288760541	62.13496568905158	2270.434155493773	-2246.660902659676	54.66621744519985	2189.474449379515	-2416.861219792399	68.72597561600799	2262.433903095108	-2193.110406943517	527.8906310402683	2582.817636938834	-2333.318238058069	520.2754682407962	2694.30965451804	-2309.936549266625	441.8671159259235	2682.431517364457	-2168.390028945045	410.6918257482759	2699.916928641187	-2166.053682644856	365.3890428549095	2575.382292556281	-2237.205651487989	175.059883271524	2685.259520984144	-2332.015175893616	218.9912594004557	2664.383883147222	-2269.146548161155	269.7370259025206	2728.238569260411	-2345.088414490428	94.20668161302316	2726.931520860465	-2325.421712441985	90.74594354164721	2644.770204200872	-2203.134084741123	64.38186966329251	2688.639012142518	-2239.133936386183	51.69890436211762	2764.819828550479	-2410.768242537806	65.61876156837413	2675.880437686116	
82	22.06	-2254.668580570162	1049.604953158164	2494.321611041815	-2181.787396249279	997.1275842371039	2365.631473278208	-2165.439553480152	919.8392616056891	2485.775869928869	-2356.458229630854	625.3525039104519	2342.534575522576	-2358.896186140966	640.0904721842005	2598.72169069922	-2546.921183144905	718.1224113019538	2421.846615100422	-2549.295059626579	720.4184282318365	2517.888940026121	-2431.952911094234	636.9715634081134	2264.333987205582	-2467.642632846454	652.996353297773	2681.593379259858	-2343.578416489303	465.670078612898	2256.124207968145	-2211.856498806649	553.1868695009514	2320.516169517267	-2283.608103925003	381.3825794776533	2313.301246335845	-2155.041146576735	391.5147391251779	2243.313318815439	-2147.138861166862	375.0942368378745	2371.551063131195	-2244.66786429527	325.2739657655666	2224.067211396915	-2242.866547994969	183.9465055428699	2242.634567101306	-2317.40269900314	243.1684101948217	2295.034512058287	-2343.982880753704	95.39742984094357	2219.175477037367	-2320.978928264562	98.57705198100122	2303.699343146289	-2206.795985139895	62.12466251939976	2270.413131717293	-2246.647441022343	54.66585993022318	2189.484395462565	-2416.801979384785	68.72997223735182	2262.524684467963	-2193.473522572919	526.5427970653243	2582.39727361006	-2333.371921755173	517.5443542416483	2694.292470407323	-2309.335274869883	439.5577471118706	2682.485571401176	-2167.455922817654	409.9845852221961	2699.793679917248	-2164.855239019009	364.4195444560536	2575.148374411486	-2236.846861806034	174.7495913031207	2685.17845611276	-2331.494983775562	218.8655880208582	2663.998704785034	-2268.607298394875	269.565109302101	2727.954274985495	-2344.990069218573	94.24443144187464	2726.744830159218	-2325.305416594399	90.66666323933497	2644.640196490019	-2203.117832737552	64.35801458742648	2688.63457109232	-2239.131598420558	51.70276107588369	2764.813635554568	-2410.684703573937	65.69422451137176	2675.845684356336	
83	22.065	-2254.394638967881	1044.392475877973	2494.367195188006	-2181.481930136493	991.698350477871	2365.80151964814	-2165.439546970939	914.3637754646026	2485.743567621499	-2357.255007994624	621.3967904034689	2342.727523058224	-2359.579726050036	635.9421511120183	2598.780655285772	-2547.942809874025	713.4403939703687	2421.950124114221	-2550.262788395317	715.8315143123982	2517.911394020372	-2432.795517287994	632.9089856912416	2264.499459988497	-2468.432288983488	649.1012983592467	2681.526641820462	-2343.371106895358	462.7560313124424	2256.195122777011	-2212.551910277447	551.6011771660742	2320.789072026217	-2282.501222605798	379.1969682572512	2313.315204815387	-2154.127347085339	390.8176697493543	2243.241243745208	-2145.875772761382	374.3203907973515	2371.630695377327	-2244.017974319103	325.0099138209238	2224.295600658237	-2242.530193844	183.6762168040674	2242.72265723094	-2316.797969499866	242.9595595632574	2295.355624519846	-2343.881401419442	95.43410035207664	2219.344291179385	-2320.834301833626	98.54300848336631	2303.855913473351	-2206.768573379829	62.11109818285131	2270.395414603013	-2246.633895401776	54.66783958152615	2189.498769140451	-2416.742893252738	68.73377671828307	2262.618841250927	-2193.863623581572	525.20053904121	2581.980789468651	-2333.44137677447	514.8148245814306	2694.273605734748	-2308.755234411069	437.2568270007079	2682.527077654129	-2166.555576437965	409.2892259535021	2699.66762593581	-2163.689508542163	363.4665497155275	2574.904431458914	-2236.496109552348	174.4477905249502	2685.087260837397	-2330.98649064716	218.7381071865599	2663.61992064202	-2268.074257390541	269.393928960328	2727.671871019977	-2344.890767158642	94.28040025352047	2726.557458664976	-2325.191462190639	90.58464530524678	2644.507947051662	-2203.099917068896	64.33106512078351	2688.626719491419	-2239.12800859794	51.70915388943572	2764.804353816028	-2410.6009860299	65.76652014207144	2675.806230466334	
